<svg version="1.1" id="Layer_1" xmlns="http://www.w3.org/2000/svg" x="0" y="0" viewBox="0 0 113.4 113.4" xml:space="preserve" preserveAspectRatio="xMinYMid"><style>.st1{fill:#fff}</style><path d="M56.7 95.5c-21.3 0-38.6-17.3-38.6-38.6 0-1.9.1-3.8.4-5.7 1.3-9.1 5.9-17.4 12.9-23.5 7-6.1 16-9.5 25.3-9.5 21.3 0 38.6 17.3 38.6 38.6S78 95.5 56.7 95.5zm0-72.6c-8.2 0-16.1 3-22.3 8.3-6.1 5.3-10.1 12.7-11.3 20.7-.2 1.6-.4 3.3-.4 5 0 18.7 15.3 34 34 34s34-15.3 34-34-15.2-34-34-34z"/><path transform="rotate(45.001 56.81 57.11)" d="M20.6 54.8H93v4.6H20.6z"/><path d="M13.1 51.9l.1 1.5L2.4 56l11 1.8.1 1.9-10.9 2.5 11 1.9.1 1.5L1 63.1l-.1-1.8 10.8-2.6-11-1.9L.6 55l12.5-3.1zM2.1 69.3l12.1-3.4 1.6 5.6-1.3.4-1.2-4.2-3.9 1.1 1.1 3.9-1.3.4-1.2-4-4.2 1.2L5 74.6l-1.3.4-1.6-5.7zM21.5 82.4l-10.8 6.5-1-1.7 7.1-9.5-9.4 5.6-.7-1.1 10.8-6.5 1 1.8-7 9.3 9.3-5.5.7 1.1zM13.3 92.2l9.4-8.4 3.9 4.3-1 .9-2.9-3.3-3 2.7 2.7 3-1 .9-2.7-3-3.2 2.9 3 3.3-1 .9-4.2-4.2zM22.9 101.4l-1.4-1.1 5.2-11.9 1.2 1-4.8 10.3 8.9-7.1 1.2.9-10.3 7.9zM28 104.9l5.9-11.1 5.2 2.7-.7 1.2-3.9-2.1-1.9 3.6 3.6 1.9-.7 1.2-3.6-1.9-2 3.9 4 2.1-.7 1.2-5.2-2.7zM39.6 103.9l-1.8 5.5-1.4-.4 3.9-12 3.7 1.2c1.9.6 2.1 2.3 1.6 3.8-.5 1.4-1.5 2.3-2.9 2.1 1.2.6 1.5 1.2.8 3.7-.2.5-.6 2.4-.6 3.3l-1.4-.5c-.1-1 .5-2.5.9-4.1.4-1.5-.7-1.9-1.1-2.1l-1.7-.5zm.4-1.3l2.1.7c1 .3 1.8-.5 2.1-1.5.3-.9.2-2-.9-2.3l-2.1-.7-1.2 3.8zM53.6 100l1.8.1 3.1 12.7-1.6-.1-.7-3-4.4-.2-1 3-1.5-.1 4.3-12.4zm.8 1.5l-2.1 6.6 3.6.2-1.5-6.8zM63 112.3l-1.4.1-1.3-12.5 1.4-.1 1.3 12.5zM66.9 105.8l1.4 5.6-1.4.3-3-12.2 3.8-.9c2-.5 3 .9 3.4 2.4.4 1.4-.1 2.7-1.3 3.3 1.3-.1 1.9.3 2.6 2.7.1.5.8 2.4 1.2 3.1l-1.5.4c-.6-.7-.9-2.4-1.4-4-.5-1.5-1.6-1.3-2-1.1l-1.8.4zm-.4-1.4l2.1-.5c1-.2 1.3-1.3 1-2.4-.2-.9-.9-1.8-1.9-1.5l-2.1.5.9 3.9zM80.3 107.3l-5.9-11.1 5-2.6.7 1.2-3.7 1.9 1.9 3.6 3.5-1.8.7 1.2-3.5 1.8 2.7 5.1-1.4.7zM85.3 97.7l3.5 4.6-1.1.9-7.6-10 3.1-2.4c1.6-1.2 3.1-.4 4.1.9.9 1.2 1 2.5.1 3.5 1.2-.6 1.8-.5 3.4 1.5.3.4 1.7 1.9 2.3 2.4l-1.2.9c-.9-.4-1.8-1.8-2.9-3.1-1-1.2-1.9-.5-2.3-.2l-1.4 1zm-.8-1.1l1.7-1.3c.8-.6.6-1.7 0-2.6-.5-.7-1.5-1.3-2.4-.6L82 93.4l2.5 3.2zM95.6 96.7l-9.3-8.5 4-4.3 1 .9-3 3.2 3 2.7 2.8-3 1 .9-2.8 3 3.2 3 3-3.3 1 .9-3.9 4.5zM102.3 88.6l-.8 1.2-10.3-7.3.8-1.2 10.3 7.3zM98.8 76.2c-1.3-.7-2.3-.5-2.9.8-.2.4-.9 1.9 1.5 3.1l3.8 1.9c2.5 1.2 3.4.9 4-.3.5-.9.5-1.7.4-2.1l-3.4-1.7-.9 1.9-1.2-.6 1.6-3.2 5.5 2.8c.1 1.1-.1 2.2-.7 3.5-1.1 2.1-2.8 2.6-6 1l-3.7-1.9c-2.2-1.1-3.1-2.9-2.1-5 1.1-2.2 2.5-2.8 4.8-1.5l-.7 1.3zM109.3 74.9l-12.2-3.3.4-1.4 5.3 1.4 1-3.8-5.3-1.4.4-1.4 12.2 3.3-.4 1.4-5.6-1.5-1 3.8 5.6 1.5-.4 1.4zM99.7 56.7l1.4.1-.2 3 11.2.9-.1 1.4-11.2-.9-.2 3-1.4-.1.5-7.4zM109.2 54.5l-9.7.8-.1-1.7 9.7-.2.1 1.1zM112 53l.1 1.5-1.8.1-.1-1.5 1.8-.1zM94.8 39s1.2.5 1.4.6c3.2 0 5 .5 5.9 1.6 1 1.1.7 2.7.5 4.1-.3 2.2-5.5 7.7-16.2 12.8-10 4.7-30.8 10.6-58.3 10.9l-.5-.6c29.2-1.4 48.1-7.3 57.9-11.9C97 51.1 100.9 45.8 101 44.8c.2-1.4.2-2-.2-2.5-.6-.7-2.2-1-4.8-1h-.2l-1.8-.7c-6.6-2.6-11.9-4.7-38.4 8.9l-1.1-.8c28.9-15 33.3-12.5 40.3-9.7M81.3 70.4c-6.6 3.5-15.7.6-16 .5l1.7.1c.1 0 7.5.9 13.5-2.3l.8 1.7"/><path d="M63 55.5l-2.3.7-3.3-1.5.7-1.7 4.9 2.5"/><path d="M58.2 52.8c16.6-6.9 33.6-10.5 36.1-11.5-1.4-.8-4.7-1.5-4.7-1.5l-1.6.4.4.4s-16.6 3.9-30.7 10.6c-.5 1.2.6 1.7.5 1.6" fill="#a4aab3"/><path class="st1" d="M77.6 44.1l.7 1.2-1.2.5-.6-1.3 1.1-.4M79.3 43.5l.7 1.3-1.2.5-.6-1.4 1.1-.4M81 43l.7 1.2-1.2.5-.6-1.3L81 43M82.9 42.4l.7 1.3-1.3.5-.6-1.4 1.2-.4M90.3 40l3.1 1.3-2.8.5-1.6-1.3 1.3-.5M74.3 45.2l.7 1.2-1.3.5-.6-1.4 1.2-.3M75.9 44.6l.7 1.3-1.2.5-.6-1.4 1.1-.4M72.5 45.7l.7 1.3-1.3.5-.6-1.4 1.2-.4M70.7 46.4l.7 1.2-1.2.5-.6-1.4 1.1-.3M69 47l.6 1.2-1.2.5-.6-1.3L69 47M67.2 47.6l.7 1.2-1.2.5-.6-1.3 1.1-.4"/><path class="st1" d="M83.3 37.7l4.2-.3 5.6 1.7 1.9 4.3 1.1 4.3.8 2.8-7.1 4.7-2.2-8.1-2.7-6.7-1.6-2.7"/><g><path class="st1" d="M90.3 40l3.1 1.3-2.8.5-1.6-1.3 1.3-.5"/></g><g><path d="M52.4 47.1l-.2.7c-1.1 3.5.1 6.5 1.8 8 1.1.9 2.3 1.2 3.3.8l.3-.2.1-.4c.8-2.4.8-4.5-.2-6.1-1.4-2.3-4.2-2.8-4.3-2.8h-.8zm3.7 7.9c-.3 0-.6-.2-1-.5-1-.8-1.7-2.5-1.6-4.5 0-.3.1-.6.1-.9.7.3 1.7.8 2.3 1.8.4.7.6 1.5.5 2.4 0 .6-.1 1.1-.3 1.7"/></g><g><path d="M76.9 61.3l-.3.7c-1.1 3.5.1 6.5 1.8 8 1.1.9 2.3 1.2 3.3.8l.3-.2.1-.4c.8-2.4.8-4.5-.2-6.1-1.4-2.3-4.2-2.8-4.3-2.8h-.7zm3.7 7.9c-.3 0-.6-.2-1-.5-1-.8-1.7-2.5-1.6-4.5 0-.3.1-.6.1-.9.7.3 1.7.8 2.3 1.8.4.7.6 1.5.5 2.4 0 .6-.1 1.1-.3 1.7"/></g><g><path d="M77.3 63.4c-3.4.9-11.9 5.9-11.9 5.9l2-2.2c.3-.2 5.7-4.5 9.5-5.5l.4 1.8"/></g><g><path d="M53.2 49c-4.3 1.1-11.7 8.1-11.8 8.1l-.3.1c.3-.3 2-5.5 11.6-9.9l.5 1.7"/></g><g><path d="M57.3 56.6c-7.9 4.6-15.2 2.6-15.4 2.5v-.2c.1 0 7.3.4 14.5-3.9l.9 1.6"/></g><g><path d="M71.7 64.7l-1.6.7-.9-2 1.7-.7.8 2"/></g><g><path d="M73.2 82c.7-.4 2.1-1.3 2.9-1.7-.6-1.2-3.5-7.5-3.5-7.5l1.6-.8 4.2 8.9-5.4 3.3-.5-.5c-.1-.1-12-12.8-20.6-16.9l1.1-.3c8 3.9 17.7 13.1 20.2 15.5"/></g><g><path d="M21.9 44.1c12 2.5 25 5.4 25.9 5.6l-.4 1.7c-.2-.1-13-2.9-25.7-5.5-.8 6.1-1.1 6.2-1 6.7 4.7 1.8 10.7 4.1 11.4 4.4.3-.4 1.1-1.4 1.1-1.4L44.5 62l-.5.4s-9.1-3.9-10.2-4.5c-.3.4-1.1 1.3-1.1 1.3L19.3 54s.6-3.6 2.6-9.9"/></g><g><path d="M37.5 59.3l-7.7 4.5S24.1 62 20 60.6c-.1-.9 0-1.9 0-1.9s9.2 3 9.6 3.1c-.5.2-.7.7 6.8-3.1l1.1.6"/></g><g><path d="M25.2 54.9c0 .1-.3 2.9 2.5 6.3l-1.4 1.1c-3.3-4-2.9-7.5-2.9-7.6l1.8.2"/></g><g><path d="M30 69l1.2.8s7.1 3.2 7.9 3.6l.8-.4c-1-1.1-5.4-4.6-5.4-4.6h1.4l6.9 5-3.7 2s-9.4-5.3-9.5-5.4c-.1 0-6-3.2-6-3.2l.4-.7 6 2.9"/></g><g><path d="M94.8 39s1.2.5 1.4.6c3.2 0 5 .5 5.9 1.6 1 1.1.7 2.7.5 4.1-.3 2.2-5.5 7.7-16.2 12.8-1.6.7-40.2 10.4-58.4 10.6l.1-.1c29.2-1.4 47.8-7.6 57.6-12.3C97 51.1 100.9 45.8 101 44.8c.2-1.4.2-2-.2-2.5-.6-.7-2.2-1-4.8-1h-.2l-1.8-.7c-6.6-2.6-11.9-4.7-38.4 8.9l-1.1-.8c28.9-15 33.3-12.5 40.3-9.7"/></g><g><path d="M58.2 52.8c16.6-6.9 33.6-10.5 36.1-11.5-1.4-.8-4.7-1.5-4.7-1.5l-1.6.4.4.4s-16.6 3.9-30.7 10.6c-.5 1.2.6 1.7.5 1.6"/></g><g><path d="M11.7 26.3l5.4 9.7 2.9-4.9 1.2.7-3.6 6.1L16 37l-5.2-9.5L8.1 32l-1.2-.7 3.5-5.8 1.3.8zM21.9 31l-9.6-8.2 3.8-4.4 1.1.9-2.9 3.3 3.1 2.6 2.7-3.1 1.1.9-2.7 3.1 3.3 2.8 2.9-3.4 1.1.9-3.9 4.6zM24.2 20.1l3.7 4.5-1.1.9-8-9.8 3-2.5c1.6-1.3 3.1-.5 4.1.7.9 1.1 1.1 2.5.2 3.5 1.2-.6 1.8-.6 3.5 1.3.4.4 1.7 1.8 2.4 2.3l-1.2 1c-.9-.4-1.8-1.7-3-3-1.1-1.1-2-.5-2.3-.2l-1.3 1.3zm-.9-1.1l1.7-1.4c.8-.7.6-1.7-.1-2.6-.6-.7-1.5-1.2-2.4-.5l-1.7 1.4 2.5 3.1zM31 16.4l-2-3.6c-1.2-2.2-.9-4.2 1.2-5.3 2.1-1.1 3.9-.3 5.1 2l1.9 3.7c1.6 3.1 1.3 4.8-.9 6-2 1-3.7.3-5.3-2.8zm5-2.6L34 10c-1.2-2.3-2.7-1.6-3.1-1.4-.4.2-1.8 1.1-.6 3.4l2 3.8c1.3 2.4 2.3 2.7 3.5 2.1 1.2-.7 1.5-1.6.2-4.1zM44.2 2.6l1.8-.4 6.2 11.6-1.6.3-1.4-2.8-4.3.9-.2 3.1-1.4.3.9-13zm1.2 1.2l-.4 7 3.6-.7-3.2-6.3zM54.8 13.8l-1.4.1-.7-12.6 1.4-.1.7 12.6zM59.1 8.1l-.5 5.8-1.4-.1 1.1-12.6 3.9.3c2 .2 2.6 1.8 2.4 3.4-.1 1.5-1 2.5-2.3 2.7 1.3.3 1.7.9 1.6 3.4 0 .5 0 2.5.1 3.3l-1.5-.1c-.3-.9-.1-2.5-.1-4.2 0-1.5-1.1-1.7-1.6-1.7l-1.7-.2zm.1-1.4l2.2.2c1 .1 1.6-.9 1.7-2 .1-.9-.2-1.9-1.4-2l-2.2-.2-.3 4zM69.6 15.7l-1.2-.5 4.9-11.6 2.2.9L74 15.3l6.8-8.6 2.2.9-4.9 11.6-1.3-.6 4.3-10.3-7.3 9.1-1.3-.5L74 5.4l-4.4 10.3zM81 21.4l-1.2-.8 7-10.5 1.2.8-7 10.5zM82.9 22.8l8.2-9.6 1.1.9-7.3 8.5 3.2 2.7-.9 1.1-4.3-3.6zM87.7 27.1l9.6-8.1 3.8 4.5-1.1.9-2.8-3.4-3.1 2.6 2.6 3.1-1.1.9-2.6-3.1-3.3 2.8 2.9 3.4-1.1.9-3.8-4.5zM96.1 31.8l-.3.2c-1.5.9-1.5 2-1 2.8.6 1 1.5 1.5 2.8.7 2.4-1.4-.4-5.6 2.9-7.5 1.9-1.1 3.7-.5 4.6 1.2 1 1.8.7 3.4-1.6 4.6l-.8-1.3c1.2-.7 1.8-1.5 1.1-2.7-.4-.7-1.3-1.3-2.5-.6-2.4 1.4.5 5.6-3 7.6-2.3 1.3-3.9.3-4.8-1.3-1.7-2.9.8-4.3 1.8-4.9l.8 1.2z"/></g><g><circle cx="27" cy="39.6" r=".8"/><circle cx="29.3" cy="37.5" r=".8"/><circle cx="31.7" cy="35.4" r=".8"/><circle cx="34" cy="33.3" r=".8"/><circle cx="36.3" cy="31.2" r=".8"/><circle cx="38.6" cy="29.1" r=".8"/><circle cx="41" cy="27" r=".8"/><circle cx="43.3" cy="24.9" r=".8"/><circle cx="24.3" cy="46" r=".8"/><circle cx="26.6" cy="43.9" r=".8"/><circle cx="28.9" cy="41.8" r=".8"/><circle cx="31.3" cy="39.7" r=".8"/><circle cx="33.6" cy="37.6" r=".8"/><circle cx="35.9" cy="35.5" r=".8"/><circle cx="38.2" cy="33.4" r=".8"/><circle cx="40.5" cy="31.3" r=".8"/><circle cx="42.9" cy="29.2" r=".8"/><circle cx="45.2" cy="27.1" r=".8"/><circle cx="47.5" cy="25" r=".8"/><circle cx="49.8" cy="22.9" r=".8"/><circle cx="28.5" cy="46" r=".8"/><circle cx="30.8" cy="43.9" r=".8"/><circle cx="33.2" cy="41.8" r=".8"/><circle cx="35.5" cy="39.7" r=".8"/><circle cx="37.8" cy="37.6" r=".8"/><circle cx="40.1" cy="35.5" r=".8"/><circle cx="42.5" cy="33.4" r=".8"/><circle cx="44.8" cy="31.3" r=".8"/><circle cx="47.1" cy="29.2" r=".8"/><circle cx="49.4" cy="27.1" r=".8"/><circle cx="51.8" cy="25" r=".8"/><circle cx="54.1" cy="22.9" r=".8"/><g><circle cx="32.8" cy="46" r=".8"/><circle cx="35.1" cy="43.9" r=".8"/><circle cx="37.4" cy="41.8" r=".8"/><circle cx="39.7" cy="39.7" r=".8"/><circle cx="42.1" cy="37.6" r=".8"/><circle cx="44.4" cy="35.5" r=".8"/><circle cx="46.7" cy="33.4" r=".8"/><circle cx="49" cy="31.3" r=".8"/><circle cx="51.4" cy="29.2" r=".8"/><circle cx="53.7" cy="27.1" r=".8"/><circle cx="56" cy="25" r=".8"/><circle cx="58.3" cy="22.9" r=".8"/></g><g><circle cx="25.4" cy="56.5" r=".8"/><circle cx="34.7" cy="48.1" r=".8"/><circle cx="37" cy="46" r=".8"/><circle cx="39.3" cy="43.9" r=".8"/><circle cx="41.7" cy="41.8" r=".8"/><circle cx="44" cy="39.7" r=".8"/><circle cx="46.3" cy="37.6" r=".8"/><circle cx="48.6" cy="35.5" r=".8"/><circle cx="50.9" cy="33.4" r=".8"/><circle cx="53.3" cy="31.3" r=".8"/><circle cx="55.6" cy="29.2" r=".8"/><circle cx="57.9" cy="27.1" r=".8"/><circle cx="60.2" cy="25" r=".8"/><circle cx="62.6" cy="22.9" r=".8"/></g><g><circle cx="27.3" cy="58.7" r=".8"/><circle cx="38.9" cy="48.2" r=".8"/><circle cx="41.2" cy="46.1" r=".8"/><circle cx="43.6" cy="44" r=".8"/><circle cx="45.9" cy="41.9" r=".8"/><circle cx="48.2" cy="39.8" r=".8"/><circle cx="50.5" cy="37.7" r=".8"/><circle cx="52.9" cy="35.6" r=".8"/><circle cx="55.2" cy="33.5" r=".8"/><circle cx="57.5" cy="31.4" r=".8"/><circle cx="59.8" cy="29.3" r=".8"/><circle cx="62.2" cy="27.2" r=".8"/><circle cx="64.5" cy="25.1" r=".8"/></g><g><circle cx="29.2" cy="60.8" r=".8"/><circle cx="31.5" cy="58.7" r=".8"/><circle cx="43.2" cy="48.2" r=".8"/><circle cx="45.5" cy="46.1" r=".8"/><circle cx="47.8" cy="44" r=".8"/><circle cx="50.1" cy="41.9" r=".8"/><circle cx="52.5" cy="39.8" r=".8"/><circle cx="54.8" cy="37.7" r=".8"/><circle cx="57.1" cy="35.6" r=".8"/><circle cx="59.4" cy="33.5" r=".8"/><circle cx="61.8" cy="31.4" r=".8"/><circle cx="64.1" cy="29.3" r=".8"/><circle cx="66.4" cy="27.2" r=".8"/><circle cx="68.7" cy="25.1" r=".8"/></g><g><circle cx="31.1" cy="62.9" r=".8"/><circle cx="33.5" cy="60.8" r=".8"/><circle cx="35.8" cy="58.7" r=".8"/><circle cx="45.1" cy="50.3" r=".8"/><circle cx="47.4" cy="48.2" r=".8"/><circle cx="49.7" cy="46.1" r=".8"/><circle cx="52.1" cy="44" r=".8"/><circle cx="54.4" cy="41.9" r=".8"/><circle cx="56.7" cy="39.8" r=".8"/><circle cx="59" cy="37.7" r=".8"/><circle cx="61.3" cy="35.6" r=".8"/><circle cx="63.7" cy="33.5" r=".8"/><circle cx="66" cy="31.4" r=".8"/><circle cx="68.3" cy="29.3" r=".8"/><circle cx="70.6" cy="27.2" r=".8"/></g><g><circle cx="26.1" cy="71.3" r=".8"/><circle cx="49.3" cy="50.3" r=".8"/><circle cx="51.6" cy="48.2" r=".8"/><circle cx="54" cy="46.1" r=".8"/><circle cx="56.3" cy="44" r=".8"/><circle cx="58.6" cy="41.9" r=".8"/><circle cx="60.9" cy="39.8" r=".8"/><circle cx="63.3" cy="37.7" r=".8"/><circle cx="65.6" cy="35.6" r=".8"/><circle cx="67.9" cy="33.5" r=".8"/><circle cx="70.2" cy="31.4" r=".8"/><circle cx="72.6" cy="29.3" r=".8"/><circle cx="74.9" cy="27.2" r=".8"/></g><g><circle cx="28" cy="73.4" r=".8"/><circle cx="30.3" cy="71.3" r=".8"/><circle cx="28.7" cy="69.2" r=".8"/><circle cx="51.2" cy="52.4" r=".8"/><circle cx="55.9" cy="48.2" r=".8"/><circle cx="58.2" cy="46.1" r=".8"/><circle cx="60.5" cy="44" r=".8"/><circle cx="62.9" cy="41.9" r=".8"/><circle cx="65.2" cy="39.8" r=".8"/><circle cx="67.5" cy="37.7" r=".8"/><circle cx="69.8" cy="35.6" r=".8"/><circle cx="72.2" cy="33.5" r=".8"/><circle cx="74.5" cy="31.4" r=".8"/><circle cx="76.8" cy="29.4" r=".8"/></g><g><circle cx="29.9" cy="75.6" r=".8"/><circle cx="32.2" cy="73.5" r=".8"/><path d="M37.5 68.7c.3.3.3.8-.1 1.1-.3.3-.8.3-1.1-.1-.3-.2-.3-.7.1-1"/><circle cx="53.2" cy="54.6" r=".8"/><circle cx="64.8" cy="44.1" r=".8"/><circle cx="67.1" cy="42" r=".8"/><circle cx="69.4" cy="39.9" r=".8"/><circle cx="71.7" cy="37.8" r=".8"/><circle cx="74.1" cy="35.7" r=".8"/><circle cx="76.4" cy="33.6" r=".8"/><circle cx="78.7" cy="31.5" r=".8"/></g><g><circle cx="31.8" cy="77.7" r=".8"/><circle cx="34.2" cy="75.6" r=".8"/><circle cx="36.5" cy="73.5" r=".8"/><path d="M38.3 70.8c.3-.3.8-.3 1.1.1.3.3.3.8-.1 1.1"/><circle cx="41.1" cy="69.3" r=".8"/><circle cx="55.1" cy="56.7" r=".8"/><circle cx="57.4" cy="54.6" r=".8"/><circle cx="62" cy="50.4" r=".8"/><circle cx="73.7" cy="39.9" r=".8"/><circle cx="76" cy="37.8" r=".8"/><circle cx="78.3" cy="35.7" r=".8"/><circle cx="80.6" cy="33.6" r=".8"/></g><g><circle cx="33.8" cy="79.8" r=".8"/><circle cx="36.1" cy="77.7" r=".8"/><circle cx="38.4" cy="75.6" r=".8"/><circle cx="40.7" cy="73.5" r=".8"/><circle cx="43.1" cy="71.4" r=".8"/><circle cx="45.4" cy="69.3" r=".8"/><path d="M48.2 67.8c-.3.3-.8.3-1.1-.1"/><circle cx="57" cy="58.8" r=".8"/><circle cx="80.2" cy="37.8" r=".8"/><circle cx="82.6" cy="35.7" r=".8"/></g><g><circle cx="35.7" cy="81.9" r=".8"/><circle cx="38" cy="79.8" r=".8"/><circle cx="40.3" cy="77.7" r=".8"/><circle cx="42.6" cy="75.6" r=".8"/><circle cx="45" cy="73.5" r=".8"/><circle cx="47.3" cy="71.4" r=".8"/><circle cx="49.6" cy="69.3" r=".8"/><circle cx="51.9" cy="67.2" r=".8"/><circle cx="58.9" cy="60.9" r=".8"/></g><g><circle cx="37.6" cy="84.1" r=".8"/><circle cx="39.9" cy="82" r=".8"/><circle cx="42.2" cy="79.9" r=".8"/><circle cx="44.6" cy="77.8" r=".8"/><circle cx="46.9" cy="75.7" r=".8"/><circle cx="49.2" cy="73.6" r=".8"/><circle cx="51.5" cy="71.5" r=".8"/><circle cx="53.9" cy="69.4" r=".8"/><circle cx="60.8" cy="63.1" r=".8"/><circle cx="88.7" cy="37.9" r=".8"/></g><g><circle cx="39.5" cy="86.2" r=".8"/><circle cx="41.8" cy="84.1" r=".8"/><circle cx="44.2" cy="82" r=".8"/><circle cx="46.5" cy="79.9" r=".8"/><circle cx="48.8" cy="77.8" r=".8"/><circle cx="51.1" cy="75.7" r=".8"/><circle cx="53.5" cy="73.6" r=".8"/><circle cx="55.8" cy="71.5" r=".8"/><circle cx="62.7" cy="65.2" r=".8"/><path d="M65.6 63.7c-.3.3-.8.3-1.1-.1-.3-.3-.3-.8.1-1.1.3-.3.8-.3 1.1.1"/></g><g><circle cx="41.4" cy="88.3" r=".8"/><circle cx="43.8" cy="86.2" r=".8"/><circle cx="46.1" cy="84.1" r=".8"/><circle cx="48.4" cy="82" r=".8"/><circle cx="50.7" cy="79.9" r=".8"/><circle cx="53" cy="77.8" r=".8"/><circle cx="55.4" cy="75.7" r=".8"/><circle cx="57.7" cy="73.6" r=".8"/><path d="M60.6 72.1c-.3.3-.8.3-1.1-.1-.3-.3-.3-.8.1-1.1"/><circle cx="64.7" cy="67.3" r=".8"/><circle cx="67" cy="65.2" r=".8"/><circle cx="69.3" cy="63.1" r=".8"/></g><g><circle cx="45.7" cy="88.3" r=".8"/><circle cx="48" cy="86.2" r=".8"/><circle cx="50.3" cy="84.1" r=".8"/><circle cx="52.6" cy="82" r=".8"/><circle cx="55" cy="79.9" r=".8"/><circle cx="57.3" cy="77.8" r=".8"/><circle cx="59.6" cy="75.7" r=".8"/><circle cx="61.9" cy="73.6" r=".8"/><circle cx="66.6" cy="69.4" r=".8"/><circle cx="68.9" cy="67.3" r=".8"/><circle cx="71.2" cy="65.2" r=".8"/><circle cx="73.6" cy="63.1" r=".8"/></g><g><circle cx="47.6" cy="90.4" r=".8"/><circle cx="49.9" cy="88.3" r=".8"/><circle cx="52.2" cy="86.2" r=".8"/><circle cx="54.6" cy="84.1" r=".8"/><circle cx="56.9" cy="82" r=".8"/><circle cx="59.2" cy="79.9" r=".8"/><circle cx="61.5" cy="77.8" r=".8"/><circle cx="63.9" cy="75.7" r=".8"/><circle cx="68.5" cy="71.5" r=".8"/><circle cx="70.8" cy="69.4" r=".8"/><circle cx="77.8" cy="63.1" r=".8"/><circle cx="80.1" cy="61" r=".8"/><circle cx="82.4" cy="58.9" r=".8"/></g><g><circle cx="51.8" cy="90.5" r=".8"/><circle cx="54.2" cy="88.4" r=".8"/><circle cx="56.5" cy="86.3" r=".8"/><circle cx="58.8" cy="84.2" r=".8"/><circle cx="61.1" cy="82.1" r=".8"/><circle cx="63.4" cy="80" r=".8"/><circle cx="65.8" cy="77.9" r=".8"/><circle cx="70.4" cy="73.7" r=".8"/><circle cx="72.7" cy="71.6" r=".8"/><circle cx="82" cy="63.2" r=".8"/><circle cx="84.4" cy="61.1" r=".8"/><circle cx="86.7" cy="59" r=".8"/><circle cx="89" cy="56.9" r=".8"/><circle cx="91.3" cy="54.8" r=".8"/></g><g><circle cx="56.1" cy="90.5" r=".8"/><circle cx="58.4" cy="88.4" r=".8"/><circle cx="60.7" cy="86.3" r=".8"/><circle cx="63" cy="84.2" r=".8"/><circle cx="65.4" cy="82.1" r=".8"/><circle cx="67.7" cy="80" r=".8"/><circle cx="72.3" cy="75.8" r=".8"/><circle cx="74.7" cy="73.7" r=".8"/><circle cx="77" cy="71.6" r=".8"/><circle cx="84" cy="65.3" r=".8"/><circle cx="86.3" cy="63.2" r=".8"/><circle cx="88.6" cy="61.1" r=".8"/><circle cx="90.9" cy="59" r=".8"/></g><g><circle cx="60.3" cy="90.5" r=".8"/><circle cx="62.6" cy="88.4" r=".8"/><circle cx="65" cy="86.3" r=".8"/><circle cx="67.3" cy="84.2" r=".8"/><circle cx="69.6" cy="82.1" r=".8"/><circle cx="74.3" cy="77.9" r=".8"/><circle cx="76.6" cy="75.8" r=".8"/><circle cx="78.9" cy="73.7" r=".8"/><circle cx="81.2" cy="71.6" r=".8"/><circle cx="83.5" cy="69.5" r=".8"/><circle cx="85.9" cy="67.4" r=".8"/><circle cx="88.2" cy="65.3" r=".8"/><circle cx="90.5" cy="63.2" r=".8"/></g><g><circle cx="64.6" cy="90.5" r=".8"/><circle cx="66.9" cy="88.4" r=".8"/><circle cx="69.2" cy="86.3" r=".8"/><circle cx="71.5" cy="84.2" r=".8"/><circle cx="76.2" cy="80" r=".8"/><circle cx="78.5" cy="77.9" r=".8"/><circle cx="80.8" cy="75.8" r=".8"/><circle cx="83.1" cy="73.7" r=".8"/><circle cx="85.5" cy="71.6" r=".8"/><circle cx="87.8" cy="69.5" r=".8"/><circle cx="90.1" cy="67.4" r=".8"/></g><g><circle cx="68.8" cy="90.6" r=".8"/><circle cx="71.1" cy="88.5" r=".8"/><circle cx="73.4" cy="86.4" r=".8"/><circle cx="75.8" cy="84.3" r=".8"/><circle cx="78.1" cy="82.2" r=".8"/><circle cx="80.4" cy="80.1" r=".8"/><circle cx="82.7" cy="78" r=".8"/><circle cx="85.1" cy="75.9" r=".8"/><circle cx="87.4" cy="73.8" r=".8"/></g></g></svg>