<?xml version="1.0" encoding="utf-8"?>
<!-- Generator: Adobe Illustrator 22.1.0, SVG Export Plug-In . SVG Version: 6.00 Build 0)  -->
<svg version="1.1" id="Layer_1" xmlns="http://www.w3.org/2000/svg" xmlns:xlink="http://www.w3.org/1999/xlink" x="0px" y="0px"
	 viewBox="0 0 142 208" style="enable-background:new 0 0 142 208;" xml:space="preserve">
<g>
	<g>
		<path d="M50.7,70.7h20c4.9,0,11.3,0,14.6,2c3.6,2.2,6.5,6.1,6.5,11.5c0,5.9-3.1,10.3-8.2,12.3v0.2c6.8,1.4,10.5,6.5,10.5,13.3
			c0,8.1-5.8,15.8-16.7,15.8H50.7V70.7z M58.1,94.4h14.7c8.3,0,11.7-3,11.7-8.8c0-7.6-5.4-8.7-11.7-8.7H58.1V94.4z M58.1,119.6h18.4
			c6.3,0,10.3-3.9,10.3-9.9c0-7.2-5.8-9.2-12-9.2H58.1V119.6z"/>
		<path d="M112.8,98.3c0,23.1-18.8,41.9-41.9,41.9c-23.1,0-41.9-18.8-41.9-41.9c0-23.1,18.8-41.9,41.9-41.9
			C94.1,56.4,112.8,75.2,112.8,98.3z M70.9,50c-26.7,0-48.3,21.6-48.3,48.3c0,26.7,21.6,48.3,48.3,48.3c26.7,0,48.3-21.6,48.3-48.3
			C119.2,71.6,97.6,50,70.9,50z"/>
	</g>
	<rect x="22.7" y="156.7" width="96.3" height="6.3"/>
	<path d="M116,149.7c0.1,0,0.2,0,0.3,0c0.1,0,0.2,0,0.3-0.1c0.1,0,0.2-0.1,0.2-0.2c0.1-0.1,0.1-0.2,0.1-0.3c0-0.1,0-0.2-0.1-0.3
		c0-0.1-0.1-0.1-0.2-0.2c-0.1,0-0.1-0.1-0.2-0.1c-0.1,0-0.2,0-0.3,0h-0.7v1.1H116z M116.2,148.2c0.4,0,0.7,0.1,0.9,0.2
		c0.2,0.2,0.3,0.4,0.3,0.7c0,0.3-0.1,0.5-0.3,0.7c-0.2,0.1-0.4,0.2-0.6,0.3l1,1.5h-0.6l-0.9-1.4h-0.6v1.4h-0.5v-3.4H116.2z
		 M113.8,150.9c0.1,0.3,0.3,0.6,0.5,0.8c0.2,0.2,0.5,0.4,0.8,0.5c0.3,0.1,0.6,0.2,0.9,0.2c0.3,0,0.7-0.1,0.9-0.2
		c0.3-0.1,0.5-0.3,0.8-0.5c0.2-0.2,0.4-0.5,0.5-0.8c0.1-0.3,0.2-0.6,0.2-1c0-0.4-0.1-0.7-0.2-1c-0.1-0.3-0.3-0.6-0.5-0.8
		c-0.2-0.2-0.5-0.4-0.8-0.5c-0.3-0.1-0.6-0.2-0.9-0.2c-0.3,0-0.7,0.1-0.9,0.2c-0.3,0.1-0.5,0.3-0.8,0.5c-0.2,0.2-0.4,0.5-0.5,0.8
		c-0.1,0.3-0.2,0.6-0.2,1C113.7,150.3,113.7,150.6,113.8,150.9 M113.4,148.8c0.2-0.3,0.4-0.6,0.6-0.9c0.3-0.3,0.6-0.5,0.9-0.6
		c0.3-0.1,0.7-0.2,1.1-0.2c0.4,0,0.8,0.1,1.1,0.2c0.3,0.2,0.6,0.3,0.9,0.6c0.3,0.3,0.5,0.6,0.6,0.9c0.2,0.4,0.2,0.7,0.2,1.1
		c0,0.4-0.1,0.8-0.2,1.1c-0.1,0.4-0.4,0.7-0.6,0.9c-0.3,0.3-0.6,0.5-0.9,0.6c-0.4,0.1-0.7,0.2-1.1,0.2c-0.4,0-0.8-0.1-1.1-0.2
		c-0.4-0.1-0.7-0.3-0.9-0.6c-0.3-0.3-0.5-0.6-0.6-0.9c-0.2-0.3-0.2-0.7-0.2-1.1C113.1,149.5,113.2,149.1,113.4,148.8"/>
</g>
<g>
	<path d="M34.3,28.8c-0.2-0.4-0.5-0.7-0.9-1c-0.3-0.3-0.7-0.5-1.2-0.6c-0.4-0.2-0.9-0.2-1.4-0.2c-0.9,0-1.6,0.2-2.2,0.5
		c-0.6,0.3-1.1,0.8-1.5,1.3c-0.4,0.6-0.6,1.2-0.8,1.9c-0.2,0.7-0.3,1.5-0.3,2.2c0,0.7,0.1,1.4,0.3,2.1c0.2,0.7,0.4,1.3,0.8,1.9
		c0.4,0.6,0.9,1,1.5,1.3c0.6,0.3,1.3,0.5,2.2,0.5c1.2,0,2.1-0.4,2.7-1.1c0.7-0.7,1.1-1.7,1.2-2.8h3.7c-0.1,1.1-0.3,2.1-0.8,3
		c-0.4,0.9-0.9,1.6-1.6,2.2c-0.7,0.6-1.4,1.1-2.3,1.4c-0.9,0.3-1.9,0.5-3,0.5c-1.3,0-2.5-0.2-3.6-0.7c-1.1-0.5-2-1.1-2.7-1.9
		c-0.7-0.8-1.3-1.8-1.7-2.9c-0.4-1.1-0.6-2.3-0.6-3.5c0-1.3,0.2-2.5,0.6-3.6c0.4-1.1,1-2.1,1.7-2.9c0.7-0.8,1.6-1.5,2.7-2
		c1.1-0.5,2.3-0.7,3.6-0.7c1,0,1.9,0.1,2.7,0.4c0.9,0.3,1.6,0.7,2.3,1.2c0.7,0.5,1.2,1.2,1.7,2c0.4,0.8,0.7,1.7,0.8,2.7h-3.7
		C34.7,29.6,34.6,29.1,34.3,28.8z"/>
	<path d="M44.1,38.5c0.5,0.5,1.3,0.8,2.2,0.8c0.7,0,1.3-0.2,1.8-0.5c0.5-0.3,0.8-0.7,0.9-1.1h3.1c-0.5,1.5-1.2,2.6-2.2,3.2
		c-1,0.7-2.2,1-3.7,1c-1,0-1.9-0.2-2.7-0.5c-0.8-0.3-1.5-0.8-2-1.4c-0.6-0.6-1-1.3-1.3-2.1c-0.3-0.8-0.5-1.7-0.5-2.7
		c0-0.9,0.2-1.8,0.5-2.6c0.3-0.8,0.7-1.5,1.3-2.1c0.6-0.6,1.2-1.1,2-1.4c0.8-0.3,1.7-0.5,2.6-0.5c1.1,0,2,0.2,2.8,0.6
		c0.8,0.4,1.5,1,2,1.7c0.5,0.7,0.9,1.5,1.1,2.4c0.2,0.9,0.3,1.8,0.2,2.8h-9.1C43.3,37.2,43.6,38,44.1,38.5z M48,31.9
		c-0.4-0.5-1-0.7-1.9-0.7c-0.6,0-1,0.1-1.4,0.3c-0.4,0.2-0.7,0.4-0.9,0.7c-0.2,0.3-0.4,0.6-0.5,0.9c-0.1,0.3-0.1,0.6-0.2,0.8h5.6
		C48.7,33,48.4,32.3,48,31.9z"/>
	<path d="M57.2,28.9v2.3h0c0.2-0.4,0.4-0.8,0.7-1.1c0.3-0.3,0.6-0.6,1-0.9c0.4-0.2,0.7-0.4,1.1-0.5c0.4-0.1,0.8-0.2,1.3-0.2
		c0.2,0,0.5,0,0.8,0.1v3.2c-0.2,0-0.4-0.1-0.6-0.1c-0.2,0-0.4,0-0.7,0c-0.6,0-1.2,0.1-1.6,0.3c-0.4,0.2-0.8,0.5-1.1,0.9
		c-0.3,0.4-0.5,0.8-0.6,1.3c-0.1,0.5-0.2,1-0.2,1.6v5.7h-3.5V28.9H57.2z"/>
	<path d="M71.3,28.9v2.3h-2.5v6.2c0,0.6,0.1,1,0.3,1.2c0.2,0.2,0.6,0.3,1.2,0.3c0.2,0,0.4,0,0.6,0c0.2,0,0.3,0,0.5-0.1v2.7
		c-0.3,0-0.6,0.1-1,0.1c-0.4,0-0.7,0-1,0c-0.5,0-1,0-1.5-0.1c-0.5-0.1-0.9-0.2-1.3-0.4c-0.4-0.2-0.7-0.5-0.9-0.9
		c-0.2-0.4-0.3-0.9-0.3-1.5v-7.4h-2.1v-2.3h2.1v-3.8h3.5v3.8H71.3z"/>
	<path d="M73.1,27v-2.9h3.5V27H73.1z M76.5,28.9v12.6h-3.5V28.9H76.5z"/>
	<path d="M77.9,31.3v-2.3H80v-1c0-1.1,0.3-2,1-2.8c0.7-0.7,1.8-1.1,3.2-1.1c0.3,0,0.6,0,0.9,0c0.3,0,0.6,0,0.9,0.1v2.6
		c-0.4,0-0.8-0.1-1.3-0.1c-0.5,0-0.8,0.1-1,0.3c-0.2,0.2-0.3,0.6-0.3,1.1v0.8h2.4v2.3h-2.4v10.3H80V31.3H77.9z"/>
	<path d="M88,27v-2.9h3.5V27H88z M91.4,28.9v12.6H88V28.9H91.4z"/>
	<path d="M96.9,38.5c0.5,0.5,1.3,0.8,2.2,0.8c0.7,0,1.3-0.2,1.8-0.5c0.5-0.3,0.8-0.7,0.9-1.1h3c-0.5,1.5-1.2,2.6-2.2,3.2
		c-1,0.7-2.2,1-3.7,1c-1,0-1.9-0.2-2.7-0.5c-0.8-0.3-1.5-0.8-2-1.4c-0.6-0.6-1-1.3-1.3-2.1c-0.3-0.8-0.5-1.7-0.5-2.7
		c0-0.9,0.2-1.8,0.5-2.6c0.3-0.8,0.7-1.5,1.3-2.1c0.6-0.6,1.2-1.1,2-1.4c0.8-0.3,1.7-0.5,2.6-0.5c1.1,0,2,0.2,2.8,0.6
		c0.8,0.4,1.5,1,2,1.7c0.5,0.7,0.9,1.5,1.1,2.4c0.2,0.9,0.3,1.8,0.2,2.8H96C96.1,37.2,96.4,38,96.9,38.5z M100.8,31.9
		c-0.4-0.5-1-0.7-1.9-0.7c-0.6,0-1,0.1-1.4,0.3c-0.4,0.2-0.7,0.4-0.9,0.7c-0.2,0.3-0.4,0.6-0.5,0.9c-0.1,0.3-0.1,0.6-0.2,0.8h5.6
		C101.5,33,101.2,32.3,100.8,31.9z"/>
	<path d="M115.7,39.9c-0.4,0.7-0.9,1.2-1.6,1.5c-0.7,0.3-1.4,0.5-2.2,0.5c-0.9,0-1.8-0.2-2.5-0.5c-0.7-0.4-1.3-0.9-1.8-1.5
		c-0.5-0.6-0.8-1.3-1-2.2c-0.2-0.8-0.4-1.7-0.4-2.5c0-0.8,0.1-1.7,0.4-2.5c0.2-0.8,0.6-1.5,1-2.1c0.5-0.6,1-1.1,1.7-1.5
		c0.7-0.4,1.5-0.5,2.4-0.5c0.7,0,1.5,0.2,2.1,0.5c0.7,0.3,1.2,0.8,1.6,1.4h0v-6.3h3.5v17.4h-3.3L115.7,39.9L115.7,39.9z M115.5,33.7
		c-0.1-0.5-0.3-0.9-0.5-1.3c-0.2-0.4-0.5-0.7-0.9-0.9c-0.4-0.2-0.8-0.3-1.4-0.3s-1,0.1-1.4,0.3c-0.4,0.2-0.7,0.5-0.9,0.9
		c-0.2,0.4-0.4,0.8-0.5,1.3c-0.1,0.5-0.2,1-0.2,1.5c0,0.5,0.1,1,0.2,1.5c0.1,0.5,0.3,0.9,0.5,1.3c0.3,0.4,0.6,0.7,1,0.9
		c0.4,0.2,0.8,0.4,1.4,0.4c0.6,0,1-0.1,1.4-0.3c0.4-0.2,0.7-0.5,0.9-0.9c0.2-0.4,0.4-0.8,0.5-1.3c0.1-0.5,0.1-1,0.1-1.5
		C115.7,34.7,115.6,34.2,115.5,33.7z"/>
</g>
<g>
	<path d="M31.3,175.5c-0.2-1.2-1.3-2.1-2.7-2.1c-2.4,0-3.3,2.1-3.3,4.2c0,2,0.9,4.1,3.3,4.1c1.6,0,2.6-1.1,2.8-2.7h2.6
		c-0.3,3-2.4,5-5.4,5c-3.8,0-6-2.8-6-6.3c0-3.6,2.2-6.5,6-6.5c2.7,0,4.9,1.6,5.3,4.4H31.3z"/>
	<path d="M39.7,174.5c2.8,0,4.6,1.8,4.6,4.7c0,2.8-1.8,4.7-4.6,4.7c-2.8,0-4.6-1.8-4.6-4.7C35.1,176.3,36.9,174.5,39.7,174.5z
		 M39.7,182c1.7,0,2.2-1.4,2.2-2.8c0-1.4-0.5-2.8-2.2-2.8c-1.6,0-2.1,1.4-2.1,2.8C37.5,180.6,38,182,39.7,182z"/>
	<path d="M45.7,174.7H48v1.6h0c0.4-1.1,1.6-1.9,2.8-1.9c0.2,0,0.4,0,0.5,0.1v2.3c-0.2-0.1-0.6-0.1-0.9-0.1c-1.8,0-2.4,1.3-2.4,2.8v4
		h-2.4V174.7z"/>
	<path d="M52.7,174.7H55v1.1h0c0.6-0.9,1.5-1.4,2.6-1.4c2.8,0,4,2.2,4,4.8c0,2.4-1.3,4.6-3.9,4.6c-1.1,0-2.1-0.5-2.7-1.3h0v4.2h-2.4
		V174.7z M59.2,179.2c0-1.4-0.6-2.9-2.1-2.9c-1.6,0-2.1,1.4-2.1,2.9c0,1.4,0.5,2.8,2.1,2.8C58.7,182,59.2,180.6,59.2,179.2z"/>
	<path d="M67.4,174.5c2.8,0,4.6,1.8,4.6,4.7c0,2.8-1.8,4.7-4.6,4.7c-2.8,0-4.6-1.8-4.6-4.7C62.8,176.3,64.6,174.5,67.4,174.5z
		 M67.4,182c1.7,0,2.2-1.4,2.2-2.8c0-1.4-0.5-2.8-2.2-2.8c-1.6,0-2.1,1.4-2.1,2.8C65.3,180.6,65.8,182,67.4,182z"/>
	<path d="M73.6,174.7h2.3v1.6h0c0.4-1.1,1.6-1.9,2.8-1.9c0.2,0,0.4,0,0.5,0.1v2.3c-0.2-0.1-0.6-0.1-0.9-0.1c-1.8,0-2.4,1.3-2.4,2.8
		v4h-2.4V174.7z"/>
	<path d="M80.1,177.5c0.1-2.3,2.2-3,4.2-3c1.8,0,3.9,0.4,3.9,2.5v4.6c0,0.8,0.1,1.6,0.3,2H86c-0.1-0.3-0.2-0.6-0.2-0.9
		c-0.8,0.8-1.9,1.1-3,1.1c-1.7,0-3-0.8-3-2.7c0-2,1.5-2.5,3-2.7c1.5-0.2,2.9-0.2,2.9-1.2c0-1-0.7-1.2-1.6-1.2
		c-0.9,0-1.5,0.4-1.6,1.3H80.1z M85.8,179.3c-0.4,0.4-1.3,0.4-2,0.5c-0.8,0.2-1.4,0.4-1.4,1.3c0,0.9,0.7,1.1,1.5,1.1
		c1.9,0,2-1.5,2-2V179.3z"/>
	<path d="M93.1,174.7h1.8v1.6h-1.8v4.4c0,0.8,0.2,1,1,1c0.3,0,0.5,0,0.8-0.1v1.9c-0.4,0.1-0.9,0.1-1.4,0.1c-1.5,0-2.8-0.3-2.8-2.1
		v-5.2h-1.5v-1.6h1.5v-2.7h2.4V174.7z"/>
	<path d="M98.6,173.4h-2.4v-2h2.4V173.4z M96.2,174.7h2.4v8.9h-2.4V174.7z"/>
	<path d="M104.5,174.5c2.8,0,4.6,1.8,4.6,4.7c0,2.8-1.8,4.7-4.6,4.7c-2.8,0-4.6-1.8-4.6-4.7C99.9,176.3,101.7,174.5,104.5,174.5z
		 M104.5,182c1.7,0,2.2-1.4,2.2-2.8c0-1.4-0.5-2.8-2.2-2.8c-1.6,0-2.1,1.4-2.1,2.8C102.3,180.6,102.8,182,104.5,182z"/>
	<path d="M110.6,174.7h2.3v1.2h0.1c0.6-1,1.7-1.5,2.7-1.5c2.6,0,3.2,1.5,3.2,3.6v5.4h-2.4v-5c0-1.5-0.4-2.2-1.6-2.2
		c-1.3,0-1.9,0.7-1.9,2.5v4.6h-2.4V174.7z"/>
</g>
</svg>
