<svg version="1.1" id="Layer_1" xmlns="http://www.w3.org/2000/svg" x="0" y="0" viewBox="0 0 50 50" xml:space="preserve"><style>.st0,.st2{stroke:#000;stroke-width:.2467}.st2{fill:none;stroke-width:1.219}</style><path class="st0" d="M8.5 30.9c.2.5.2 1 .2 1.5l-.5.1c0-.4 0-.9-.2-1.4-.3-1-.9-1.6-1.6-1.3-.2 0-.4.2-.5.5-.3.6-.1 1.5-.3 2.2-.1.4-.4.8-1 1-.9.3-1.7-.3-2-1.2-.1-.5-.2-.8-.2-1.1l.4-.1c0 .2 0 .6.1 1 .2.7.7 1.1 1.4.9.5-.1.6-.5.7-1s0-1.2.2-1.8c.1-.4.4-.8 1-1 1.2-.3 2 .6 2.3 1.7zM7.6 25.4c0 1.5-1 2.3-3 2.3-2.1 0-3-.9-3-2.3s.9-2.3 3-2.3 3 .9 3 2.3zm-5.6 0c0 1.1.7 1.8 2.6 1.8s2.6-.7 2.6-1.8-.7-1.8-2.6-1.8c-1.9.1-2.6.8-2.6 1.8zM9.9 16.4l-1.3 2.9-5.3-2.4.2-.5 4.9 2.2 1.1-2.4.4.2zM14.5 11.4l-1.6-1.1-1.7 1.6.9 1.7-.4.3-2.8-5.3 1-.9 5 3.3-.4.4zM9.9 8.3l-.4.4 1.4 2.8 1.6-1.4-2.6-1.8zM16.9 10.1c-.5.2-1 .4-1.4.5l-.1-.4c.4-.1.9-.2 1.3-.4.9-.5 1.4-1.1 1.1-1.8-.1-.3-.4-.5-.6-.5-.6-.2-1.5.1-2.2 0-.5-.1-.9-.2-1.1-.8-.4-.9 0-1.7.9-2.1.4-.2.8-.3 1.1-.3l.1.4c-.2 0-.6.1-.9.3-.7.3-1 .9-.7 1.5.2.4.6.5 1 .5.6 0 1.2-.2 1.8-.1.5.1.9.3 1.1.8.4 1-.4 1.9-1.4 2.4zM21.1 8.6c-.6.1-1 .1-1.5.1v-.5c.4.1.9 0 1.4-.1 1-.2 1.6-.7 1.5-1.5-.1-.3-.3-.5-.5-.6-.6-.4-1.4-.3-2.1-.5-.4-.2-.8-.4-.9-1.1-.2-1 .5-1.7 1.4-1.8.5-.1.8-.1 1.1 0V3h-1c-.8.2-1.2.6-1.1 1.3.1.5.4.7.9.8.5.1 1.2.1 1.8.4.4.2.8.5.9 1.1.2 1-.8 1.7-1.9 2zM26.6 8.2c-1.5-.1-2.2-1.2-2-3.3s1.2-2.9 2.6-2.8c1.4.1 2.2 1.2 2 3.2-.2 2.2-1.1 3-2.6 2.9zm.6-5.6c-1.1-.1-1.8.5-2 2.4s.5 2.6 1.5 2.7 1.8-.5 2-2.4c.2-1.8-.5-2.6-1.5-2.7zM35.4 5.8c-.1-.6-.4-1-1-1.3-1-.4-2 0-2.7 1.6s-.4 2.6.7 3.1c.4.2.8.3 1.3.3v.5c-.5 0-1-.1-1.4-.3-1.3-.6-1.9-1.7-1-3.7.8-2 2.2-2.4 3.4-1.8.9.4 1.2.8 1.3 1.5l-.6.1zM38.9 14.9l1.1-1.6-1.6-1.7-1.7.9-.3-.4 5.3-2.8.9 1-3.3 5-.4-.4zm3-4.6l-.4-.4-2.8 1.4 1.4 1.6 1.8-2.6zM45.9 16.5l-.9-1.6-4.7 2.5-.2-.5 4.7-2.5-.8-1.6.4-.2 2 3.7-.5.2zM42.2 24.5c-.1-1.5.8-2.4 2.9-2.5s3.1.7 3.2 2.2c.1 1.4-.8 2.4-2.9 2.5-2.1.1-3.2-.8-3.2-2.2zm5.6-.3c-.1-1.1-.8-1.7-2.6-1.6-1.9.1-2.5.9-2.5 1.9.1 1 .8 1.7 2.6 1.6 1.9-.1 2.5-.9 2.5-1.9zM41.1 31.9l5.7-1.8-4.7-1.4.1-.5 5.6 1.7-.1.5-5.7 1.8 4.8 1.4-.1.5-5.7-1.7.1-.5z"/><circle cx="24.8" cy="25.2" r="13.9" fill="none" stroke="#000" stroke-width="1.172"/><path class="st2" d="M28.6 13.4c-.8-.8-2.4-2.1-5-1.8-3.9.5-5.1 4.2-5.3 7.3-.3 4.5.1 8.2-1.8 10.2-1.4 1.4-2.6 1.5-3.6.4s-.3-3.4 1.4-5.2c1.5-1.6 3.1-2.1 3.9-2.5"/><path class="st2" d="M33.2 34.6c1-.5 3.4-1.6 3.9-3.3 1.3-3.8-1-6.5-3.7-8.3-3.7-2.4-7.1-4-8-6.7-.6-1.9 0-3 1.4-3.4 1.4-.3 3.1 1.4 3.8 3.8.6 2.1.3 3.8.2 4.6"/><path class="st2" d="M12.4 28.2c-.1 1.1-.2 3.6 1 4.9 2.6 3 6.2 2.4 9 1 4-2 7-4.2 9.8-3.5 1.9.5 2.6 1.5 2.2 2.9-.4 1.4-2.8 1.9-5.2 1.4-2.1-.5-3.4-1.6-4.1-2.1"/><path class="st0" d="M8 41.8c-1.1-1.1-1-2.4.4-3.9 1.5-1.5 2.8-1.5 3.8-.4 1.1 1.1 1 2.4-.4 3.8-1.4 1.5-2.7 1.5-3.8.5zm3.6-3.6c-.5-.5-1.2-.6-2.3.6-1.2 1.2-1.1 1.8-.6 2.3s1.2.6 2.3-.6c1.2-1.2 1.1-1.9.6-2.3zM14.2 46.1v-2.3c-.1-.1-.3-.1-.4-.2l-.2-.1-1 1.8-1-.5 2.8-5.1c.3.1 1 .4 1.6.7 1.1.6 1.7 1.6 1 2.8-.4.7-1 1-1.7.9v2.7l-1.1-.7zm1.4-5l-.6-.3-1 1.8.3.2c.6.3 1.3.5 1.7-.3.4-.6 0-1.1-.4-1.4zM21.5 44.1c-.2-.6-.5-.8-1-.9-.9-.2-1.5.5-1.8 1.7s-.1 2.1.8 2.3c.3.1.5.1.8.1l.3-1.1-.8-.2.3-.9 1.8.4-.6 2.7c-.6.1-1.3 0-1.9-.1-1.4-.3-2.2-1.4-1.7-3.5s1.8-2.7 3.1-2.4c1 .2 1.4.7 1.6 1.4l-.9.5zM26.7 48.5l-.4-1.6-1.7.1-.3 1.6h-1.1l1.1-5.9 2-.1 1.5 5.8-1.1.1zm-1.2-4.8h-.3l-.4 2.3h1.3l-.6-2.3zM33.4 47l-3.7-3 1.3 3.7-1 .3-1.8-5.5 1-.3 3.7 3-1.3-3.8 1-.3 1.8 5.5-1 .4zM39.4 37.7c-.6-.2-1 0-1.3.3-.7.7-.4 1.5.5 2.4s1.7 1.2 2.4.5c.3-.3.5-.6.7-1l.8.4c-.2.5-.5.9-.8 1.3-1.1 1-2.4 1.1-3.9-.4s-1.3-3-.3-3.9c.7-.7 1.3-.8 2.1-.6l-.2 1z"/><path transform="rotate(-54.648 36.692 8.852)" class="st0" d="M33.8 8.6h5.8v.5h-5.8z"/><path transform="rotate(-16.843 44.393 19.542)" class="st0" d="M41.5 19.3h5.8v.5h-5.8z"/><path transform="rotate(-32.167 35.76 42.477)" class="st0" d="M35.2 39.6h1.1v5.8h-1.1z"/><path transform="rotate(-76.526 5.185 20.679)" class="st0" d="M4.9 17.8h.5v5.8h-.5z"/></svg>